<?xml version="1.0" encoding="UTF-8"?>
<svg width="133px" height="133px" viewBox="0 0 133 133" version="1.1" xmlns="http://www.w3.org/2000/svg" xmlns:xlink="http://www.w3.org/1999/xlink">
    <!-- Generator: Sketch 46 (44423) - http://www.bohemiancoding.com/sketch -->
    <title>Desktop HD</title>
    <desc>Created with Sketch.</desc>
    <defs>
        <rect id="path-1" x="0" y="58.9718853" width="126.689655" height="46.0717854" rx="5.5296"></rect>
        <rect id="path-2" x="7.34432784" y="22.114457" width="112.001" height="106.886542" rx="23.9616"></rect>
        <rect id="path-3" x="0" y="0" width="1.91954023" height="4.04822955" rx="0.959770115"></rect>
        <rect id="path-4" x="0" y="14.1688034" width="1.91954023" height="4.04822955" rx="0.959770115"></rect>
        <rect id="path-5" x="0" y="0" width="1.91954023" height="4.04822955" rx="0.959770115"></rect>
        <rect id="path-6" x="0" y="14.1688034" width="1.91954023" height="4.04822955" rx="0.959770115"></rect>
        <rect id="path-7" x="0" y="0" width="1.91954023" height="4.04822955" rx="0.959770115"></rect>
        <rect id="path-8" x="0" y="14.1688034" width="1.91954023" height="4.04822955" rx="0.959770115"></rect>
        <rect id="path-9" x="0" y="0" width="1.91954023" height="4.04822955" rx="0.959770115"></rect>
        <rect id="path-10" x="0" y="14.1688034" width="1.91954023" height="4.04822955" rx="0.959770115"></rect>
        <rect id="path-11" x="0" y="0" width="1.91954023" height="4.04822955" rx="0.959770115"></rect>
        <rect id="path-12" x="0" y="14.1688034" width="1.91954023" height="4.04822955" rx="0.959770115"></rect>
        <rect id="path-13" x="0" y="0" width="1.91954023" height="4.04822955" rx="0.959770115"></rect>
        <rect id="path-14" x="0" y="14.1688034" width="1.91954023" height="4.04822955" rx="0.959770115"></rect>
        <rect id="path-15" x="0" y="0" width="1.91954023" height="4.04822955" rx="0.959770115"></rect>
        <rect id="path-16" x="0" y="14.1688034" width="1.91954023" height="4.04822955" rx="0.959770115"></rect>
        <rect id="path-17" x="0" y="0" width="1.91954023" height="4.04822955" rx="0.959770115"></rect>
        <rect id="path-18" x="0" y="14.1688034" width="1.91954023" height="4.04822955" rx="0.959770115"></rect>
        <rect id="path-19" x="22.0329835" y="99.5150564" width="82.6236882" height="16.5858427" rx="3.6864"></rect>
        <rect id="path-20" x="26.6323982" y="104.204698" width="73.4432784" height="7.37148566" rx="0.9216"></rect>
        <rect id="path-21" x="0" y="0" width="1.83608196" height="5.52861424" rx="0.91804098"></rect>
        <rect id="path-22" x="5.50824588" y="0" width="1.83608196" height="5.52861424" rx="0.91804098"></rect>
        <rect id="path-23" x="11.0164918" y="0" width="1.83608196" height="5.52861424" rx="0.91804098"></rect>
        <rect id="path-24" x="16.5247376" y="0" width="1.83608196" height="5.52861424" rx="0.91804098"></rect>
        <rect id="path-25" x="22.0329835" y="0" width="1.83608196" height="5.52861424" rx="0.91804098"></rect>
        <rect id="path-26" x="0" y="0" width="1.83608196" height="5.52861424" rx="0.91804098"></rect>
        <rect id="path-27" x="5.50824588" y="0" width="1.83608196" height="5.52861424" rx="0.91804098"></rect>
        <rect id="path-28" x="11.0164918" y="0" width="1.83608196" height="5.52861424" rx="0.91804098"></rect>
        <rect id="path-29" x="16.5247376" y="0" width="1.83608196" height="5.52861424" rx="0.91804098"></rect>
        <rect id="path-30" x="22.0329835" y="0" width="1.83608196" height="5.52861424" rx="0.91804098"></rect>
        <rect id="path-31" x="0" y="0" width="1.83608196" height="5.52861424" rx="0.91804098"></rect>
        <rect id="path-32" x="5.50824588" y="0" width="1.83608196" height="5.52861424" rx="0.91804098"></rect>
    </defs>
    <g id="Page-1" stroke="none" stroke-width="1" fill="none" fill-rule="evenodd">
        <g id="Desktop-HD" transform="translate(-31.000000, -38.000000)">
            <g id="Robot" transform="translate(13.000000, 41.000000)">
                <g id="Group-18" transform="translate(21.114943, 0.000000)">
                    <g id="Group-17">
                        <g id="Group-9">
                            <g id="Rectangle-21">
                                <use fill="#FF7F7F" fill-rule="evenodd" xlink:href="#path-1"></use>
                                <rect stroke="#000000" stroke-width="3.6864" x="1.8432" y="60.8150853" width="123.003255" height="42.3853854" rx="5.5296"></rect>
                            </g>
                            <g id="Group-8" transform="translate(20.196902, 0.000000)" stroke-width="2.7648" stroke="#000000">
                                <g id="Group-7">
                                    <ellipse id="Oval-2" cx="3.44265367" cy="9.21435707" rx="3.44265367" ry="9.21435707"></ellipse>
                                    <ellipse id="Oval-2" cx="10.327961" cy="9.21435707" rx="3.44265367" ry="9.21435707"></ellipse>
                                    <ellipse id="Oval-2" cx="17.2132684" cy="9.21435707" rx="3.44265367" ry="9.21435707"></ellipse>
                                    <ellipse id="Oval-2" cx="24.0985757" cy="9.21435707" rx="3.44265367" ry="9.21435707"></ellipse>
                                </g>
                                <g id="Group-7" transform="translate(27.541229, 0.000000)">
                                    <ellipse id="Oval-2" cx="3.44265367" cy="9.21435707" rx="3.44265367" ry="9.21435707"></ellipse>
                                    <ellipse id="Oval-2" cx="10.327961" cy="9.21435707" rx="3.44265367" ry="9.21435707"></ellipse>
                                    <ellipse id="Oval-2" cx="17.2132684" cy="9.21435707" rx="3.44265367" ry="9.21435707"></ellipse>
                                    <ellipse id="Oval-2" cx="24.0985757" cy="9.21435707" rx="3.44265367" ry="9.21435707"></ellipse>
                                </g>
                                <g id="Group-7" transform="translate(55.082459, 0.000000)">
                                    <ellipse id="Oval-2" cx="3.44265367" cy="9.21435707" rx="3.44265367" ry="9.21435707"></ellipse>
                                    <ellipse id="Oval-2" cx="10.327961" cy="9.21435707" rx="3.44265367" ry="9.21435707"></ellipse>
                                    <ellipse id="Oval-2" cx="17.2132684" cy="9.21435707" rx="3.44265367" ry="9.21435707"></ellipse>
                                    <ellipse id="Oval-2" cx="24.0985757" cy="9.21435707" rx="3.44265367" ry="9.21435707"></ellipse>
                                </g>
                            </g>
                            <g id="Rectangle-16">
                                <use fill="#D2F4F2" fill-rule="evenodd" xlink:href="#path-2"></use>
                                <rect stroke="#000000" stroke-width="3.6864" x="9.18752784" y="23.957657" width="108.3146" height="103.200142" rx="23.9616"></rect>
                            </g>
                            <path d="M117.502127,35.5981419 C117.502127,37.813827 117.502127,39.0930369 117.502127,42.3860425 L120.997704,41.5693186 L117.502127,34.4971504 L117.502127,35.5981419 Z M105.217723,9.64363333 L103.161594,5.48372143 L101.043066,8.08372568 C102.503448,8.46547135 103.899731,8.99112781 105.217723,9.64363333 Z M105.217723,9.64363333 C112.582074,13.2895418 117.502127,20.8957712 117.502127,29.4859426 C117.502127,32.4053566 117.502127,34.1906871 117.502127,35.5981419 L105.217723,9.64363333 Z M17.8207008,11.9266531 C18.4778578,11.4212184 19.1665464,10.9502557 19.8846399,10.5169403 C20.4240837,10.1914266 20.9772075,9.88926695 21.5425595,9.6113953 C21.8088479,9.480514 22.0777867,9.35505176 22.3492258,9.23509585 L21.6041791,7.54918612 L19.8983553,6.8509373 L17.8207008,11.9266531 Z M9.18752784,33.0175187 L5.63850404,41.6877937 L9.18752784,42.3860425 C9.18752784,38.6983143 9.18752784,37.688749 9.18752784,34.4162045 L9.18752784,33.0175187 Z M9.18752784,34.4162045 C9.18752784,33.1825801 9.18752784,31.6273858 9.18752784,29.4859426 C9.18752784,22.4862692 12.451794,16.0560037 17.8207008,11.9266531 L9.18752784,33.0175187 L9.18752784,34.4162045 Z" id="Rectangle-16" stroke="#000000" stroke-width="3.6864"></path>
                            <g id="Group-3" transform="translate(18.360820, 46.071785)">
                                <ellipse id="Oval-11" stroke="#000000" stroke-width="2.7648" fill="#FF7F7F" cx="17.4427786" cy="17.5072784" rx="17.4427786" ry="17.5072784"></ellipse>
                                <ellipse id="Oval" stroke="#000000" stroke-width="1.8432" fill="#FFFFFF" cx="17.3979663" cy="17.483767" rx="12.5285592" ry="12.5748873"></ellipse>
                                <ellipse id="Oval-12" fill="#000000" cx="17.4427786" cy="17.5072784" rx="3.0781374" ry="3.08951972"></ellipse>
                            </g>
                            <g id="Group-11" transform="translate(26.143636, 54.549303)">
                                <g id="Group-5" transform="translate(8.637931, 0.000000)">
                                    <g id="Rectangle-18">
                                        <use fill="#D8D8D8" fill-rule="evenodd" xlink:href="#path-3"></use>
                                        <rect stroke="#000000" stroke-width="1.8432" x="0.9216" y="0.9216" width="1" height="2.20502955" rx="0.5"></rect>
                                    </g>
                                    <g id="Rectangle-18">
                                        <use fill="#D8D8D8" fill-rule="evenodd" xlink:href="#path-4"></use>
                                        <rect stroke="#000000" stroke-width="1.8432" x="0.9216" y="15.0904034" width="1" height="2.20502955" rx="0.5"></rect>
                                    </g>
                                </g>
                                <g id="Group-5" transform="translate(9.597701, 9.108516) rotate(45.000000) translate(-9.597701, -9.108516) translate(8.637931, 0.000000)">
                                    <g id="Rectangle-18">
                                        <use fill="#D8D8D8" fill-rule="evenodd" xlink:href="#path-5"></use>
                                        <rect stroke="#000000" stroke-width="1.8432" x="0.9216" y="0.9216" width="1" height="2.20502955" rx="0.5"></rect>
                                    </g>
                                    <g id="Rectangle-18">
                                        <use fill="#D8D8D8" fill-rule="evenodd" xlink:href="#path-6"></use>
                                        <rect stroke="#000000" stroke-width="1.8432" x="0.9216" y="15.0904034" width="1" height="2.20502955" rx="0.5"></rect>
                                    </g>
                                </g>
                                <g id="Group-5" transform="translate(9.597701, 9.108516) rotate(90.000000) translate(-9.597701, -9.108516) translate(8.637931, 0.000000)">
                                    <g id="Rectangle-18">
                                        <use fill="#D8D8D8" fill-rule="evenodd" xlink:href="#path-7"></use>
                                        <rect stroke="#000000" stroke-width="1.8432" x="0.9216" y="0.9216" width="1" height="2.20502955" rx="0.5"></rect>
                                    </g>
                                    <g id="Rectangle-18">
                                        <use fill="#D8D8D8" fill-rule="evenodd" xlink:href="#path-8"></use>
                                        <rect stroke="#000000" stroke-width="1.8432" x="0.9216" y="15.0904034" width="1" height="2.20502955" rx="0.5"></rect>
                                    </g>
                                </g>
                                <g id="Group-5" transform="translate(9.597701, 9.108516) rotate(135.000000) translate(-9.597701, -9.108516) translate(8.637931, 0.000000)">
                                    <g id="Rectangle-18">
                                        <use fill="#D8D8D8" fill-rule="evenodd" xlink:href="#path-9"></use>
                                        <rect stroke="#000000" stroke-width="1.8432" x="0.9216" y="0.9216" width="1" height="2.20502955" rx="0.5"></rect>
                                    </g>
                                    <g id="Rectangle-18">
                                        <use fill="#D8D8D8" fill-rule="evenodd" xlink:href="#path-10"></use>
                                        <rect stroke="#000000" stroke-width="1.8432" x="0.9216" y="15.0904034" width="1" height="2.20502955" rx="0.5"></rect>
                                    </g>
                                </g>
                            </g>
                            <g id="Group-3" transform="translate(73.443278, 46.071785)">
                                <ellipse id="Oval-11" stroke="#000000" stroke-width="2.7648" fill="#FF7F7F" cx="17.4427786" cy="17.5072784" rx="17.4427786" ry="17.5072784"></ellipse>
                                <ellipse id="Oval" stroke="#000000" stroke-width="1.8432" fill="#FFFFFF" cx="17.3979663" cy="17.483767" rx="12.5285592" ry="12.5748873"></ellipse>
                                <ellipse id="Oval-12" fill="#000000" cx="17.4427786" cy="17.5072784" rx="3.0781374" ry="3.08951972"></ellipse>
                            </g>
                            <g id="Group-10" transform="translate(81.179085, 54.339291)">
                                <g id="Group-5" transform="translate(8.637931, 0.000000)">
                                    <g id="Rectangle-18">
                                        <use fill="#D8D8D8" fill-rule="evenodd" xlink:href="#path-11"></use>
                                        <rect stroke="#000000" stroke-width="1.8432" x="0.9216" y="0.9216" width="1" height="2.20502955" rx="0.5"></rect>
                                    </g>
                                    <g id="Rectangle-18">
                                        <use fill="#D8D8D8" fill-rule="evenodd" xlink:href="#path-12"></use>
                                        <rect stroke="#000000" stroke-width="1.8432" x="0.9216" y="15.0904034" width="1" height="2.20502955" rx="0.5"></rect>
                                    </g>
                                </g>
                                <g id="Group-5" transform="translate(9.597701, 9.108516) rotate(45.000000) translate(-9.597701, -9.108516) translate(8.637931, 0.000000)">
                                    <g id="Rectangle-18">
                                        <use fill="#D8D8D8" fill-rule="evenodd" xlink:href="#path-13"></use>
                                        <rect stroke="#000000" stroke-width="1.8432" x="0.9216" y="0.9216" width="1" height="2.20502955" rx="0.5"></rect>
                                    </g>
                                    <g id="Rectangle-18">
                                        <use fill="#D8D8D8" fill-rule="evenodd" xlink:href="#path-14"></use>
                                        <rect stroke="#000000" stroke-width="1.8432" x="0.9216" y="15.0904034" width="1" height="2.20502955" rx="0.5"></rect>
                                    </g>
                                </g>
                                <g id="Group-5" transform="translate(9.597701, 9.108516) rotate(90.000000) translate(-9.597701, -9.108516) translate(8.637931, 0.000000)">
                                    <g id="Rectangle-18">
                                        <use fill="#D8D8D8" fill-rule="evenodd" xlink:href="#path-15"></use>
                                        <rect stroke="#000000" stroke-width="1.8432" x="0.9216" y="0.9216" width="1" height="2.20502955" rx="0.5"></rect>
                                    </g>
                                    <g id="Rectangle-18">
                                        <use fill="#D8D8D8" fill-rule="evenodd" xlink:href="#path-16"></use>
                                        <rect stroke="#000000" stroke-width="1.8432" x="0.9216" y="15.0904034" width="1" height="2.20502955" rx="0.5"></rect>
                                    </g>
                                </g>
                                <g id="Group-5" transform="translate(9.597701, 9.108516) rotate(135.000000) translate(-9.597701, -9.108516) translate(8.637931, 0.000000)">
                                    <g id="Rectangle-18">
                                        <use fill="#D8D8D8" fill-rule="evenodd" xlink:href="#path-17"></use>
                                        <rect stroke="#000000" stroke-width="1.8432" x="0.9216" y="0.9216" width="1" height="2.20502955" rx="0.5"></rect>
                                    </g>
                                    <g id="Rectangle-18">
                                        <use fill="#D8D8D8" fill-rule="evenodd" xlink:href="#path-18"></use>
                                        <rect stroke="#000000" stroke-width="1.8432" x="0.9216" y="15.0904034" width="1" height="2.20502955" rx="0.5"></rect>
                                    </g>
                                </g>
                            </g>
                            <path d="M63.7489332,74.4523109 L73.0694292,91.4613315 L73.0694292,91.4613315 C73.1917267,91.6845128 73.1099442,91.9645788 72.8867629,92.0868763 C72.8188829,92.1240727 72.7427268,92.1435707 72.6653236,92.1435707 L54.0243315,92.1435707 L54.0243315,92.1435707 C53.7698387,92.1435707 53.5635315,91.9372635 53.5635315,91.6827707 C53.5635315,91.6053675 53.5830296,91.5292114 53.620226,91.4613315 L62.940722,74.4523109 L62.940722,74.4523109 C63.0630195,74.2291295 63.3430855,74.147347 63.5662668,74.2696445 C63.6433267,74.3118713 63.7067064,74.375251 63.7489332,74.4523109 Z" id="Triangle" stroke="#000000" stroke-width="2.7648"></path>
                            <g id="Rectangle-19">
                                <use fill="#FF7F7F" fill-rule="evenodd" xlink:href="#path-19"></use>
                                <rect stroke="#000000" stroke-width="2.7648" x="23.4153835" y="100.897456" width="79.8588882" height="13.8210427" rx="3.6864"></rect>
                            </g>
                            <g id="Rectangle-19">
                                <use fill="#FFFFFF" fill-rule="evenodd" xlink:href="#path-20"></use>
                                <rect stroke="#000000" stroke-width="1.8432" x="27.5539982" y="105.126298" width="71.6000784" height="5.52828566" rx="0.9216"></rect>
                            </g>
                            <g id="Group-6" transform="translate(32.001128, 105.043671)">
                                <g id="Group-4">
                                    <g id="Rectangle-20">
                                        <use fill="#000000" fill-rule="evenodd" xlink:href="#path-21"></use>
                                        <rect x="0" y="0" width="1.83608196" height="5.52861424" rx="0.91804098"></rect>
                                    </g>
                                    <g id="Rectangle-20">
                                        <use fill="#000000" fill-rule="evenodd" xlink:href="#path-22"></use>
                                        <rect x="5.50824588" y="0" width="1.83608196" height="5.52861424" rx="0.91804098"></rect>
                                    </g>
                                    <g id="Rectangle-20">
                                        <use fill="#000000" fill-rule="evenodd" xlink:href="#path-23"></use>
                                        <rect x="11.0164918" y="0" width="1.83608196" height="5.52861424" rx="0.91804098"></rect>
                                    </g>
                                    <g id="Rectangle-20">
                                        <use fill="#000000" fill-rule="evenodd" xlink:href="#path-24"></use>
                                        <rect x="16.5247376" y="0" width="1.83608196" height="5.52861424" rx="0.91804098"></rect>
                                    </g>
                                    <g id="Rectangle-20">
                                        <use fill="#000000" fill-rule="evenodd" xlink:href="#path-25"></use>
                                        <rect x="22.0329835" y="0" width="1.83608196" height="5.52861424" rx="0.91804098"></rect>
                                    </g>
                                </g>
                                <g id="Group-4" transform="translate(27.541229, 0.000000)">
                                    <g id="Rectangle-20">
                                        <use fill="#000000" fill-rule="evenodd" xlink:href="#path-26"></use>
                                        <rect x="0" y="0" width="1.83608196" height="5.52861424" rx="0.91804098"></rect>
                                    </g>
                                    <g id="Rectangle-20">
                                        <use fill="#000000" fill-rule="evenodd" xlink:href="#path-27"></use>
                                        <rect x="5.50824588" y="0" width="1.83608196" height="5.52861424" rx="0.91804098"></rect>
                                    </g>
                                    <g id="Rectangle-20">
                                        <use fill="#000000" fill-rule="evenodd" xlink:href="#path-28"></use>
                                        <rect x="11.0164918" y="0" width="1.83608196" height="5.52861424" rx="0.91804098"></rect>
                                    </g>
                                    <g id="Rectangle-20">
                                        <use fill="#000000" fill-rule="evenodd" xlink:href="#path-29"></use>
                                        <rect x="16.5247376" y="0" width="1.83608196" height="5.52861424" rx="0.91804098"></rect>
                                    </g>
                                    <g id="Rectangle-20">
                                        <use fill="#000000" fill-rule="evenodd" xlink:href="#path-30"></use>
                                        <rect x="22.0329835" y="0" width="1.83608196" height="5.52861424" rx="0.91804098"></rect>
                                    </g>
                                </g>
                                <g id="Group-4" transform="translate(55.082459, 0.000000)">
                                    <g id="Rectangle-20">
                                        <use fill="#000000" fill-rule="evenodd" xlink:href="#path-31"></use>
                                        <rect x="0" y="0" width="1.83608196" height="5.52861424" rx="0.91804098"></rect>
                                    </g>
                                    <g id="Rectangle-20">
                                        <use fill="#000000" fill-rule="evenodd" xlink:href="#path-32"></use>
                                        <rect x="5.50824588" y="0" width="1.83608196" height="5.52861424" rx="0.91804098"></rect>
                                    </g>
                                </g>
                            </g>
                        </g>
                    </g>
                </g>
            </g>
        </g>
    </g>
</svg>